# xmcd
#
# Track frame offsets:
#  150
#  11652
#  48887
#  68442
#  75610
#  87692
#  92652
#  103400
#  115190
#  137240
#  144535
#  170350
#  187942
#  201270
#
# Disc length: 2788 seconds
#
# Revision: 0
# Processed by: cddbd v1.5.1PL2 Copyright (c) Steve Scherf et al.
# Submitted via: Collectorz.com_Music_Collector 6.9
#
DISCID=bd0ae20e
DTITLE=Various Artist - Vrouwvolk met Gospodar
DYEAR=1900
DGENRE=Folkmusic
TTITLE0=Lepi Juro
TTITLE1=Do devet godini - Los dedo
TTITLE2=Kadjah podjoh na Bembasu
TTITLE3=Gjura
TTITLE4=Racenica
TTITLE5=Que me, queréis, caballero
TTITLE6=Con el viento
TTITLE7=La leyenda del tiempo
TTITLE8=Papaloco
TTITLE9=Oifn ojwn sitst a meydl
TTITLE10=In Fabrik - Rue plats
TTITLE11=Erzurumi
TTITLE12=Gujne, gujice
TTITLE13=U Stankini gosti doshlie
EXTD=
EXTT0=
EXTT1=
EXTT2=
EXTT3=
EXTT4=
EXTT5=
EXTT6=
EXTT7=
EXTT8=
EXTT9=
EXTT10=
EXTT11=
EXTT12=
EXTT13=
PLAYORDER=
